<svg xmlns="http://www.w3.org/2000/svg" viewBox="0 0 58.54 14.82"><defs><style>.a{isolation:isolate;}.b{fill:#d0d2d3;}</style></defs><title>duphub-font</title><g class="a"><path class="b" d="M9.8,7.4a4.09,4.09,0,0,1-.39,1.77,4.38,4.38,0,0,1-1.05,1.44,4.78,4.78,0,0,1-1.56,1,5,5,0,0,1-1.9.36A5.07,5.07,0,0,1,3,11.58a5,5,0,0,1-1.56-1,4.69,4.69,0,0,1-1-1.44,4.29,4.29,0,0,1,0-3.53,4.69,4.69,0,0,1,1-1.44A5,5,0,0,1,3,3.22,5.27,5.27,0,0,1,4.9,2.87,4.72,4.72,0,0,1,7,3.38,3.86,3.86,0,0,1,8.55,4.62V0H9.8Zm-1.25,0a3.13,3.13,0,0,0-.29-1.31A3.47,3.47,0,0,0,7.48,5a3.66,3.66,0,0,0-1.17-.72A3.69,3.69,0,0,0,4.9,4a3.78,3.78,0,0,0-1.42.27A3.72,3.72,0,0,0,2.32,5a3.35,3.35,0,0,0-.79,1.08,3.23,3.23,0,0,0,0,2.63A3.35,3.35,0,0,0,2.32,9.8a3.91,3.91,0,0,0,1.16.72,3.77,3.77,0,0,0,1.42.26,3.68,3.68,0,0,0,1.41-.26A3.84,3.84,0,0,0,7.48,9.8a3.47,3.47,0,0,0,.78-1.08A3.14,3.14,0,0,0,8.55,7.4Z"/><path class="b" d="M17.44,3.3h1.24V8.23a3.35,3.35,0,0,1-.31,1.43,3.71,3.71,0,0,1-.85,1.18,4.2,4.2,0,0,1-1.28.8,4.15,4.15,0,0,1-3.1,0,4.15,4.15,0,0,1-1.27-.8A3.74,3.74,0,0,1,11,9.66a3.21,3.21,0,0,1-.32-1.43V3.3H12V8.23a2.38,2.38,0,0,0,.21,1,2.45,2.45,0,0,0,.59.8,3,3,0,0,0,.86.53,2.67,2.67,0,0,0,1.06.2,2.72,2.72,0,0,0,1.07-.2,2.94,2.94,0,0,0,.87-.53,2.45,2.45,0,0,0,.59-.8,2.39,2.39,0,0,0,.22-1Z"/><path class="b" d="M19.48,7.42a4,4,0,0,1,.39-1.76,4.53,4.53,0,0,1,1.05-1.45,5.14,5.14,0,0,1,6.92,0,4.53,4.53,0,0,1,1.05,1.45,4,4,0,0,1,.39,1.76,4.09,4.09,0,0,1-.39,1.77,4.49,4.49,0,0,1-1.05,1.44A5.09,5.09,0,0,1,24.38,12a4.91,4.91,0,0,1-2.08-.5,3.77,3.77,0,0,1-1.57-1.25v4.61H19.48Zm1.25,0A3.08,3.08,0,0,0,21,8.73a3.5,3.5,0,0,0,.79,1.08,3.74,3.74,0,0,0,1.16.73,4,4,0,0,0,2.84,0A3.74,3.74,0,0,0,27,9.81a3.5,3.5,0,0,0,.79-1.08,3.2,3.2,0,0,0,0-2.62A3.5,3.5,0,0,0,27,5,3.74,3.74,0,0,0,25.8,4.3,4,4,0,0,0,23,4.3,3.74,3.74,0,0,0,21.8,5,3.5,3.5,0,0,0,21,6.11,3.08,3.08,0,0,0,20.73,7.42Z"/><path class="b" d="M30.35,0h1.28V4a2.93,2.93,0,0,1,1.16-.84,3.94,3.94,0,0,1,1.55-.31,4,4,0,0,1,1.54.3,3.91,3.91,0,0,1,1.28.8A3.63,3.63,0,0,1,38,5.15a3.18,3.18,0,0,1,.32,1.43v5H37.06v-5a2.38,2.38,0,0,0-.21-1,2.6,2.6,0,0,0-.59-.8,3,3,0,0,0-.87-.54,2.91,2.91,0,0,0-1-.19,2.6,2.6,0,0,0-1,.21,2.65,2.65,0,0,0-.85.57,2.9,2.9,0,0,0-.59.81,2.1,2.1,0,0,0-.22.95v4.94h-1.3Z"/><path class="b" d="M46.34,3.3h1.25V8.23a3.36,3.36,0,0,1-.32,1.43,3.56,3.56,0,0,1-.85,1.18,4.15,4.15,0,0,1-1.27.8,4.07,4.07,0,0,1-1.55.3,4,4,0,0,1-1.55-.3,4.2,4.2,0,0,1-1.28-.8,3.74,3.74,0,0,1-.86-1.18,3.36,3.36,0,0,1-.32-1.43V3.3h1.28V8.23a2.24,2.24,0,0,0,.22,1,2.42,2.42,0,0,0,.58.8,2.94,2.94,0,0,0,.87.53,2.63,2.63,0,0,0,1.06.2,2.75,2.75,0,0,0,1.07-.2,2.94,2.94,0,0,0,.87-.53,2.42,2.42,0,0,0,.58-.8,2.24,2.24,0,0,0,.22-1Z"/><path class="b" d="M48.74,0H50V4.62a3.79,3.79,0,0,1,1.57-1.24,4.72,4.72,0,0,1,2.08-.51,5.27,5.27,0,0,1,1.91.35,4.87,4.87,0,0,1,1.55,1,4.56,4.56,0,0,1,1.06,1.44,4.29,4.29,0,0,1,0,3.53,4.56,4.56,0,0,1-1.06,1.44,4.84,4.84,0,0,1-1.55,1,5.25,5.25,0,0,1-3.82,0,4.84,4.84,0,0,1-1.55-1,4.38,4.38,0,0,1-1-1.44,4.09,4.09,0,0,1-.39-1.77ZM50,7.4a3.13,3.13,0,0,0,.28,1.32,3.5,3.5,0,0,0,.79,1.08,3.91,3.91,0,0,0,1.16.72,4,4,0,0,0,2.84,0,3.91,3.91,0,0,0,1.16-.72A3.5,3.5,0,0,0,57,8.72a3.23,3.23,0,0,0,0-2.63A3.5,3.5,0,0,0,56.22,5a3.72,3.72,0,0,0-1.16-.72,3.87,3.87,0,0,0-2.84,0A3.72,3.72,0,0,0,51.06,5a3.5,3.5,0,0,0-.79,1.08A3.12,3.12,0,0,0,50,7.4Z"/></g></svg>