<svg width="1325.48" height="357.32" xmlns="http://www.w3.org/2000/svg" xmlns:svg="http://www.w3.org/2000/svg">
 <defs>
  <style>.a{font-size:315px;font-family:HKGrotesk-BoldItalic, HK Grotesk;font-weight:700;font-style:italic;letter-spacing:-0.1em;}.b{letter-spacing:-0.1em;}.c{letter-spacing:-0.1em;}</style>
 </defs>
 <title>duphub-website-logo</title>
 <g>
  <title>Layer 1</title>
  <text opacity="0.5" id="svg_1" x="414.32999" y="277.03" class="a">d
   <tspan id="svg_2" y="277.03" x="562.78999" class="b">up</tspan>
   <tspan id="svg_3" y="277.03" x="859.23999" class="c">h</tspan>
   <tspan id="svg_4" y="277.03" x="1005.68999" class="b">ub</tspan></text>
  <path opacity="0.5" id="svg_5" d="m164.22,277l-122.85,0l0,-37.58l-41.37,0l0,-114.07l41.37,0l0,-37.61l81.9,0l-10.59,-87.74l51.54,12l0,265zm-41.37,-302.61l0,150.96l-81.48,0l0,114.07l81.48,-265.03z"/>
  <rect opacity="0.5" fill="black" id="svg_6" height="16.3" width="16.3" y="155.43" x="67.69"/>
  <path opacity="0.5" fill="black" id="svg_7" d="m171.44,1.13c63.87,-7.26 0.09999,135.84 0.09999,135.84c93.68001,-64.68 182.91002,13.39 166.7,141.31l-76.85999,0c73.10999,-155.09 -75.55,-159.49 -89.82001,-109.28"/>
 </g>
</svg>
