<svg xmlns="http://www.w3.org/2000/svg" viewBox="0 0 1325.5 357.3"><defs><style>.a{fill:#d1e0f9;}.b{fill:#1e4fa2;}</style></defs><title>Artboard 1</title><path class="a" d="M164.2,277H41.4V239.4H0V125.3H41.4V87.7h81.9L112.7,0l51.5,12Zm-41.3-37.6v-114H41.4V239.5Z"/><path class="a" d="M67.7,155.4H84v16.3H67.7Z"/><path class="a" d="M171.4,1.1c63.9-7.3.1,135.8.1,135.8,93.7-64.7,182.9,13.4,166.7,141.3H261.3c73.1-155.1-75.6-159.5-89.8-109.3"/><path class="b" d="M556.62,179.18a60.3,60.3,0,0,1-5.57,25.68,66.57,66.57,0,0,1-15.27,21A72.34,72.34,0,0,1,513.13,240a76.9,76.9,0,0,1-55.39,0,72.34,72.34,0,0,1-22.65-14.16,66.57,66.57,0,0,1-15.27-21,62,62,0,0,1,0-51.36,66.57,66.57,0,0,1,15.27-21,72.34,72.34,0,0,1,22.65-14.16,74.09,74.09,0,0,1,27.69-5.16q15,0,30.29,7.44,15.27,7.2,22.78,18V71.42h18.12Zm-18.12,0a45.13,45.13,0,0,0-4.15-19.08A49.52,49.52,0,0,0,523,144.38a53.86,53.86,0,0,0-17-10.56,57,57,0,0,0-41.15,0,53.75,53.75,0,0,0-17,10.56,49.4,49.4,0,0,0-11.39,15.72,46,46,0,0,0,0,38.16A49.4,49.4,0,0,0,447.9,214a53.75,53.75,0,0,0,17,10.56,57,57,0,0,0,41.15,0A53.86,53.86,0,0,0,523,214a49.52,49.52,0,0,0,11.38-15.72A45.13,45.13,0,0,0,538.5,179.18Z"/><path class="b" d="M668.69,119.42h18.12v71.76a49.34,49.34,0,0,1-4.53,20.88,54,54,0,0,1-12.42,17.16,60.59,60.59,0,0,1-18.51,11.64,60.86,60.86,0,0,1-45,0,60.47,60.47,0,0,1-18.51-11.64,55.75,55.75,0,0,1-12.55-17.16,48.13,48.13,0,0,1-4.66-20.88V119.42h18.64v71.76a33.91,33.91,0,0,0,3.1,14.4,35.71,35.71,0,0,0,8.55,11.64,41.87,41.87,0,0,0,12.55,7.8,40.66,40.66,0,0,0,15.4,2.88A41.91,41.91,0,0,0,657,217.22a35.68,35.68,0,0,0,8.54-11.64,33.77,33.77,0,0,0,3.11-14.4Z"/><path class="b" d="M699.49,179.42a60.29,60.29,0,0,1,5.56-25.68,66.6,66.6,0,0,1,15.28-21A72.29,72.29,0,0,1,743,118.58a76.93,76.93,0,0,1,55.4,0A72.57,72.57,0,0,1,821,132.74a66.73,66.73,0,0,1,15.27,21,62.08,62.08,0,0,1,0,51.36,66.73,66.73,0,0,1-15.27,21,72.57,72.57,0,0,1-22.65,14.16,74.1,74.1,0,0,1-27.7,5.16q-14.76,0-30.28-7.2-15.54-7.44-22.78-18.24v67.2H699.49Zm18.12,0a45.12,45.12,0,0,0,4.14,19.08,49.4,49.4,0,0,0,11.39,15.72,53.7,53.7,0,0,0,17,10.56,57.07,57.07,0,0,0,41.16,0,53.7,53.7,0,0,0,17-10.56,49.4,49.4,0,0,0,11.39-15.72,46,46,0,0,0,0-38.16,49.4,49.4,0,0,0-11.39-15.72,53.7,53.7,0,0,0-17-10.56,57.07,57.07,0,0,0-41.16,0,53.7,53.7,0,0,0-17,10.56,49.4,49.4,0,0,0-11.39,15.72A45.12,45.12,0,0,0,717.61,179.42Z"/><path class="b" d="M858.42,71.42h18.63V130a42.71,42.71,0,0,1,17-12.24,56.71,56.71,0,0,1,22.39-4.56,59.2,59.2,0,0,1,22.52,4.32,60.42,60.42,0,0,1,18.5,11.64A55.78,55.78,0,0,1,970,146.3a48.28,48.28,0,0,1,4.66,20.88v72.24H956V167.18a33.92,33.92,0,0,0-3.11-14.4,35.82,35.82,0,0,0-8.54-11.64,41.54,41.54,0,0,0-12.68-7.8,41,41,0,0,0-15.27-2.88,36.72,36.72,0,0,0-14.89,3.12,41.4,41.4,0,0,0-12.42,8.28,42,42,0,0,0-8.54,11.76,30.94,30.94,0,0,0-3.24,13.8v72H858.42Z"/><path class="b" d="M1091.89,119.42H1110v71.76a49.49,49.49,0,0,1-4.53,20.88,54,54,0,0,1-12.43,17.16,60.35,60.35,0,0,1-18.51,11.64,60.83,60.83,0,0,1-45,0A60.35,60.35,0,0,1,1011,229.22a55.43,55.43,0,0,1-12.55-17.16,48.13,48.13,0,0,1-4.66-20.88V119.42h18.63v71.76a33.92,33.92,0,0,0,3.11,14.4,35.82,35.82,0,0,0,8.54,11.64,42.12,42.12,0,0,0,12.55,7.8A40.71,40.71,0,0,0,1052,227.9a41.91,41.91,0,0,0,28.21-10.68,35.82,35.82,0,0,0,8.54-11.64,33.92,33.92,0,0,0,3.11-14.4Z"/><path class="b" d="M1127.86,71.42H1146v67.2q7.5-10.8,22.78-18,15.27-7.44,30.28-7.44a74.1,74.1,0,0,1,27.7,5.16,72.34,72.34,0,0,1,22.65,14.16,66.57,66.57,0,0,1,15.27,21,62.08,62.08,0,0,1,0,51.36,66.57,66.57,0,0,1-15.27,21A72.34,72.34,0,0,1,1226.74,240a76.9,76.9,0,0,1-55.39,0,72.34,72.34,0,0,1-22.65-14.16,66.57,66.57,0,0,1-15.27-21,60.15,60.15,0,0,1-5.57-25.68ZM1146,179.18a45.12,45.12,0,0,0,4.14,19.08A49.4,49.4,0,0,0,1161.51,214a53.75,53.75,0,0,0,17,10.56,57,57,0,0,0,41.15,0,53.86,53.86,0,0,0,17-10.56A49.52,49.52,0,0,0,1248,198.26a45.94,45.94,0,0,0,0-38.16,49.52,49.52,0,0,0-11.38-15.72,53.86,53.86,0,0,0-17-10.56,57,57,0,0,0-41.15,0,53.75,53.75,0,0,0-17,10.56,49.4,49.4,0,0,0-11.39,15.72A45.12,45.12,0,0,0,1146,179.18Z"/></svg>